<svg height='100px' width='100px'  fill="#000000" xmlns="http://www.w3.org/2000/svg" xmlns:xlink="http://www.w3.org/1999/xlink" version="1.1" x="0px" y="0px" viewBox="0 0 100 100" enable-background="new 0 0 100 100" xml:space="preserve"><path fill="#000000" d="M49.884,11.807c1.637-1.693,4.334-1.74,6.024-0.105l1.892,1.824c0.219-0.677,0.639-1.276,1.199-1.714  l-2.355-1.15c-2.117-1.032-2.996-3.583-1.963-5.699c1.031-2.115,3.582-2.994,5.697-1.962c2.114,1.032,2.994,3.583,1.963,5.698  l-1.152,2.36c0.73-0.001,1.424,0.222,2.002,0.614l0.367-2.6c0.326-2.331,2.48-3.955,4.812-3.627  c2.329,0.328,3.954,2.482,3.627,4.812c-0.328,2.331-2.482,3.954-4.814,3.626l-2.6-0.365l0.121,0.485  c0.098,0.555,0.062,1.102-0.084,1.608l2.582-0.456c2.317-0.408,4.528,1.139,4.938,3.457c0.408,2.318-1.139,4.528-3.457,4.937  c-2.316,0.409-4.527-1.138-4.938-3.457l-0.455-2.585c-0.425,0.31-0.927,0.53-1.479,0.628l-0.5,0.053l1.229,2.317  c1.105,2.078,0.316,4.658-1.762,5.763s-4.658,0.316-5.764-1.762c-1.106-2.078-0.316-4.658,1.762-5.764l2.318-1.232  c-0.564-0.41-1.012-0.986-1.258-1.672l-1.824,1.887c-1.635,1.693-4.332,1.74-6.025,0.105C48.296,16.197,48.249,13.499,49.884,11.807  z M64.304,16.368c-0.117,0.208-0.254,0.404-0.41,0.585l3.744,2.622c0.391,0.273,0.801-0.312,0.41-0.585L64.304,16.368z   M63.812,12.204c0.16,0.174,0.305,0.365,0.43,0.571l3.65-2.751c0.381-0.286-0.051-0.857-0.43-0.57L63.812,12.204z M60.374,11.154  l-1.488-4.322c-0.154-0.45-0.83-0.218-0.676,0.233l1.487,4.321C59.913,11.288,60.138,11.209,60.374,11.154z M57.651,15.044  c-0.031-0.241-0.033-0.48-0.014-0.714l-4.57,0.08c-0.477,0.009-0.463,0.723,0.012,0.714L57.651,15.044z M60.495,18.124  c-0.234-0.047-0.463-0.117-0.684-0.209l-1.336,4.371c-0.139,0.455,0.545,0.664,0.684,0.209L60.495,18.124z M80.278,47.407  c-0.217,0.267-0.461,0.509-0.725,0.725l4.637,4.638c0.484,0.483,1.209-0.242,0.727-0.727L80.278,47.407z M74.46,48.937  c-0.324-0.126-0.629-0.282-0.914-0.464l-2.977,5.841c-0.309,0.609,0.604,1.076,0.914,0.467L74.46,48.937z M71.368,42.866  l-6.479-1.026c-0.675-0.107-0.835,0.905-0.16,1.012l6.479,1.026C71.226,43.541,71.278,43.202,71.368,42.866z M75.013,39.219  c0.33-0.086,0.668-0.141,1.012-0.161l-1.025-6.478c-0.104-0.675-1.119-0.514-1.012,0.161L75.013,39.219z M80.618,41.4  c0.188,0.288,0.342,0.594,0.467,0.913l5.844-2.978c0.609-0.311,0.146-1.224-0.463-0.914L80.618,41.4z M65.128,56.596  c-1.045-3.213,0.713-6.662,3.926-7.706l3.582-1.164c-0.709-0.735-1.187-1.67-1.361-2.677l-3.045,2.212  c-2.734,1.985-6.559,1.379-8.543-1.353c-1.984-2.732-1.379-6.556,1.354-8.541c2.73-1.985,6.555-1.379,8.541,1.352l2.215,3.049  c0.49-0.924,1.24-1.653,2.125-2.122l-3.047-2.215c-2.731-1.984-3.338-5.809-1.352-8.541c1.984-2.732,5.809-3.337,8.539-1.353  c2.734,1.985,3.34,5.809,1.354,8.541L77.2,39.126l0.697,0.174c0.768,0.25,1.438,0.664,1.979,1.19l1.166-3.581  c1.043-3.212,4.492-4.969,7.703-3.926c3.213,1.043,4.971,4.494,3.928,7.705c-1.045,3.212-4.496,4.969-7.705,3.926l-3.584-1.165  c0.107,0.748,0.048,1.53-0.2,2.297l-0.271,0.67h3.766c3.377,0,6.113,2.737,6.113,6.114c0,3.377-2.736,6.114-6.113,6.114  s-6.115-2.737-6.115-6.114l0.002-3.768c-0.902,0.44-1.932,0.618-2.967,0.469l1.16,3.582c1.045,3.211-0.713,6.66-3.924,7.705  C69.62,61.564,66.173,59.807,65.128,56.596z M42.944,48.357c-0.249,0.07-0.502,0.114-0.757,0.132l0.854,4.841  c0.089,0.504,0.846,0.37,0.757-0.134L42.944,48.357z M38.715,46.795c-0.146-0.217-0.267-0.443-0.362-0.677l-4.34,2.308  c-0.452,0.24-0.092,0.918,0.36,0.678L38.715,46.795z M39.425,41.738l-3.536-3.415c-0.368-0.356-0.902,0.196-0.533,0.552l3.536,3.415  C39.048,42.091,39.227,41.906,39.425,41.738z M43.231,41.066c0.24,0.088,0.472,0.2,0.691,0.336l2.154-4.418  c0.224-0.46-0.466-0.797-0.69-0.336L43.231,41.066z M45.735,44.816c-0.01,0.256-0.047,0.511-0.106,0.76l4.868,0.684  c0.508,0.072,0.615-0.688,0.107-0.76L45.735,44.816z M29.692,47.484c0.74-2.42,3.302-3.783,5.723-3.043l2.699,0.826  c-0.119-0.757-0.009-1.536,0.314-2.229l-2.82,0.048c-2.531,0.044-4.618-1.971-4.662-4.501c-0.045-2.531,1.972-4.618,4.502-4.662  c2.53-0.045,4.618,1.971,4.662,4.501l0.05,2.824c0.698-0.357,1.471-0.482,2.216-0.389l-0.918-2.669  c-0.824-2.393,0.448-5.001,2.841-5.825c2.393-0.824,5.002,0.447,5.827,2.841c0.822,2.393-0.449,5.001-2.842,5.825l-2.67,0.919  l0.354,0.407c0.364,0.483,0.597,1.025,0.703,1.582l2.253-1.698c2.021-1.524,4.896-1.12,6.418,0.902  c1.521,2.021,1.119,4.895-0.901,6.418s-4.896,1.121-6.418-0.902l-1.7-2.255c-0.255,0.504-0.629,0.96-1.111,1.324l-0.454,0.295  l2.312,1.619c2.073,1.452,2.577,4.309,1.125,6.381c-1.452,2.074-4.309,2.578-6.381,1.127c-2.075-1.452-2.578-4.311-1.126-6.383  l1.62-2.313c-0.742-0.118-1.452-0.451-2.023-0.988l-0.825,2.698c-0.741,2.42-3.303,3.782-5.723,3.042  C30.315,52.467,28.953,49.905,29.692,47.484z M62.401,35.447v-9.039c0.641-0.56,1.158-1.256,1.473-2.047v10.774  C63.378,35.186,62.884,35.29,62.401,35.447z M49.042,52.053l9.676,0.033c1.769,0,3.244-1.246,3.601-2.907  c0.457,0.155,0.938,0.265,1.438,0.321c-0.504,2.32-2.569,4.059-5.041,4.059l-9.562-0.033C49.187,53.036,49.151,52.541,49.042,52.053  z M32.352,86.693v-4.396c0-1.221,0.989-2.211,2.209-2.211l19.026,0.001c0.105,0.505,0.263,0.999,0.472,1.475l-19.498-0.002  c-0.405,0-0.735,0.33-0.735,0.737v4.396h29.424c0.398,1.086,1.084,2.08,2.047,2.861c1.244,1.008,2.586,1.469,3.888,1.516v3.684  c0,0.406-0.332,0.736-0.738,0.736h-3.666v1.275c0,0.405-0.33,0.737-0.735,0.737h-3.545c-0.406,0-0.736-0.332-0.736-0.737V95.49  H25.215v1.275c0,0.405-0.329,0.737-0.735,0.737h-3.547c-0.406,0-0.736-0.332-0.736-0.737V95.49h-3.666  c-0.407,0-0.736-0.33-0.736-0.736v-7.322c0-0.406,0.329-0.736,0.736-0.736h4.938v-3.993c0-4.653,3.771-8.425,8.423-8.425  l9.447-0.004c2.034,0,3.685-1.649,3.685-3.684l0.001-11.449c0.506,0.043,1,0.008,1.474-0.093L44.498,70.59  c0,2.85-2.309,5.157-5.157,5.157h-5.76c-3.209,0.423-5.685,3.168-5.685,6.493v4.453h1.508v-4.396c0-2.849,2.31-5.156,5.158-5.156  h9.364c2.034,0,3.683-1.648,3.683-3.684l0.002-11.626c0-2.849,2.309-5.156,5.156-5.156l11.23,0.001l0.077,0.26  c0.144,0.435,0.312,0.84,0.507,1.215l-11.814-0.002c-2.033,0-3.684,1.649-3.684,3.684v11.626c0,2.849-2.31,5.157-5.159,5.157  l-9.365-0.002c-2.034,0-3.683,1.648-3.683,3.685v4.396H32.352z M69.31,79.125c-0.264,0.055-0.531,0.083-0.799,0.083l0.537,5.108  c0.057,0.533,0.854,0.449,0.799-0.084L69.31,79.125z M65.015,77.188c-0.137-0.236-0.244-0.481-0.328-0.732l-4.693,2.089  c-0.488,0.218-0.162,0.951,0.326,0.733L65.015,77.188z M66.124,71.966l-3.438-3.817c-0.356-0.396-0.953,0.14-0.597,0.537  l3.438,3.816C65.704,72.309,65.903,72.128,66.124,71.966z M70.14,71.545c0.244,0.107,0.477,0.243,0.697,0.4l2.565-4.449  c0.271-0.463-0.426-0.864-0.692-0.402L70.14,71.545z M72.478,75.635c-0.029,0.27-0.086,0.53-0.166,0.786l5.025,1.068  c0.522,0.11,0.688-0.675,0.166-0.785L72.478,75.635z M55.558,77.249c0.947-2.472,3.717-3.704,6.188-2.755l2.756,1.058  c-0.069-0.799,0.103-1.602,0.49-2.302l-2.945-0.154c-2.641-0.14-4.672-2.393-4.532-5.033c0.139-2.642,2.393-4.672,5.034-4.533  s4.67,2.393,4.531,5.033l-0.154,2.947c0.754-0.32,1.57-0.395,2.341-0.244l-0.763-2.85c-0.686-2.557,0.83-5.182,3.388-5.866  c2.555-0.684,5.18,0.831,5.864,3.388c0.686,2.556-0.832,5.182-3.387,5.865l-2.852,0.766l0.34,0.447  c0.344,0.531,0.547,1.113,0.617,1.701l2.473-1.605c2.219-1.44,5.186-0.811,6.627,1.408c1.439,2.22,0.809,5.186-1.41,6.625  c-2.217,1.441-5.184,0.812-6.623-1.408l-1.606-2.475c-0.306,0.508-0.728,0.955-1.257,1.299l-0.493,0.274l2.291,1.854  c2.057,1.666,2.372,4.682,0.709,6.738c-1.666,2.057-4.683,2.371-6.738,0.707c-2.055-1.664-2.373-4.681-0.707-6.736l1.856-2.293  c-0.766-0.176-1.479-0.576-2.036-1.178l-1.058,2.752c-0.949,2.471-3.721,3.703-6.188,2.756  C55.843,82.488,54.608,79.719,55.558,77.249z"></path></svg>